<?xml version="1.0" encoding="UTF-8"?><svg id="Layer_1" xmlns="http://www.w3.org/2000/svg" width="600" height="600" viewBox="0 0 600 600"><circle cx="300" cy="300" r="300" fill="#f2a71d" stroke-width="0"/><path d="m167.5,167.5h265v265H167.5V167.5Z" fill="none" stroke-width="0"/><path d="m388.4,337.3c-13.6,0-26.7-2.2-39-6.2-3.9-1.3-8.2-.3-11.2,2.6l-17.3,21.8c-31.2-14.9-60.5-43.1-76.1-75.4l21.5-18.3c3-3.1,3.9-7.4,2.6-11.3-4.1-12.3-6.2-25.4-6.2-39s-5-10.9-10.9-10.9h-38.2c-6,0-13.1,2.7-13.1,10.9,0,102.6,85.4,187.8,187.8,187.8s10.9-7,10.9-13v-38.1c0-6-5-10.9-10.9-10.9Z" fill="#1e1918" stroke-width="0"/></svg>