<?xml version="1.0" encoding="UTF-8"?><svg id="Layer_1" xmlns="http://www.w3.org/2000/svg" width="8.5in" height="8.5in" viewBox="0 0 612 612"><circle cx="306" cy="306" r="300.5" fill="#f1a71e" stroke-width="0"/><circle cx="306" cy="306" r="104.9" fill="#1d1918" stroke-width="0"/><circle cx="306" cy="306" r="13.8" fill="#f1a71e" stroke-width="0"/><path d="m86,351.3c-2.5,0-4.8-1.8-5.2-4.4-2.4-13.4-3.6-27.2-3.6-40.9,0-32.8,6.7-64.5,20-94.2,12.8-28.7,31-54.1,54.1-75.6,2.2-2,5.5-1.9,7.5.3,2,2.2,1.9,5.5-.3,7.5-22.1,20.5-39.4,44.8-51.6,72.2-12.6,28.3-19,58.6-19,89.9s1.2,26.2,3.4,39c.5,2.9-1.4,5.7-4.3,6.2-.3,0-.6,0-.9,0Z" fill="#1d1918" stroke-width="0"/><path d="m142.9,315c-2.9,0-5.3-2.4-5.3-5.3,0-40.1,12.3-78.5,35.6-111.1,1.7-2.4,5-2.9,7.4-1.2s2.9,5,1.2,7.4c-22,30.7-33.6,67-33.6,104.9s-2.4,5.3-5.3,5.3Z" fill="#1d1918" stroke-width="0"/><path d="m526,351.3c2.5,0,4.8-1.8,5.2-4.4,2.4-13.4,3.6-27.2,3.6-40.9,0-32.8-6.7-64.5-20-94.2-12.8-28.7-31-54.1-54.1-75.6-2.2-2-5.5-1.9-7.5.3-2,2.2-1.9,5.5.3,7.5,22.1,20.5,39.4,44.8,51.6,72.2,12.6,28.3,19,58.6,19,89.9s-1.2,26.2-3.4,39c-.5,2.9,1.4,5.7,4.3,6.2.3,0,.6,0,.9,0Z" fill="#1d1918" stroke-width="0"/><path d="m469.1,315c2.9,0,5.3-2.4,5.3-5.3,0-40.1-12.3-78.5-35.6-111.1-1.7-2.4-5-2.9-7.4-1.2s-2.9,5-1.2,7.4c22,30.7,33.6,67,33.6,104.9s2.4,5.3,5.3,5.3Z" fill="#1d1918" stroke-width="0"/></svg>