<?xml version="1.0" encoding="UTF-8"?><svg id="Layer_1" xmlns="http://www.w3.org/2000/svg" width="40" height="40" viewBox="0 0 40 40"><path d="m28.4,13.5c1.8,0,3.3,1.5,3.3,3.3v16.7c0,1.8-1.5,3.3-3.3,3.3H11.6c-1.8,0-3.3-1.5-3.3-3.3v-16.7c0-1.8,1.5-3.3,3.3-3.3h16.7m0-3.1H11.6c-3.6,0-6.5,2.9-6.5,6.5v16.7c0,3.6,2.9,6.5,6.5,6.5h16.7c3.6,0,6.5-2.9,6.5-6.5v-16.7c0-3.6-2.9-6.5-6.5-6.5h0Z" fill="#f0a61e" stroke-width="0"/><path d="m20,20.9c2.3,0,4.2,1.9,4.2,4.2s-1.9,4.2-4.2,4.2-4.2-1.9-4.2-4.2,1.9-4.2,4.2-4.2m0-2.7c-3.8,0-6.9,3.1-6.9,6.9s3.1,6.9,6.9,6.9,6.9-3.1,6.9-6.9-3.1-6.9-6.9-6.9h0Z" fill="#f0a61e" stroke-width="0"/><circle cx="27.6" cy="18.3" r="1.9" fill="#f0a61e" stroke-width="0"/></svg>