<?xml version="1.0" encoding="UTF-8"?><svg id="Layer_1" xmlns="http://www.w3.org/2000/svg" width="40" height="40" viewBox="0 0 40 40"><circle cx="20" cy="20" r="20" fill="#f1a71e" stroke-width="0"/><circle cx="20" cy="20" r="7" fill="#1d1918" stroke-width="0"/><circle cx="20" cy="20" r=".9" fill="#f1a71e" stroke-width="0"/><path d="m12.6,6.1l1.7,1.6h0s0-2.4,0-2.4l.8-.4v4s-.3.1-.3.1l-3-2.6.8-.4Z" fill="#1d1918" stroke-width="0"/><path d="m16,4.8l.8-.2.8,3.5-.8.2-.8-3.5Z" fill="#1d1918" stroke-width="0"/><path d="m18.9,5.8h0s0,2.1,0,2.1h-.8s0-3.6,0-3.6h.3s2.1,2,2.1,2h0s0-2,0-2h.8s0,3.6,0,3.6h-.3s-2.1-2-2.1-2Z" fill="#1d1918" stroke-width="0"/><path d="m23,6.9l-.7-2.5.9.2.4,1.6,1.1-1.2.8.2-1.8,1.9-.3,1.3-.8-.2.3-1.3Z" fill="#1d1918" stroke-width="0"/><path d="m26.5,5.6l.7.4-1.3,2.5,1.2.6-.4.6-1.8-1,1.7-3.2Z" fill="#1d1918" stroke-width="0"/><path d="m8.4,24.1l.5,1.1c.6,1.1,0,2.1-.7,2.5-.8.4-1.9.2-2.4-.9l-.5-1.1,3.2-1.6Zm-2,2.3c.3.6.9.8,1.4.5.6-.3.8-.8.5-1.5l-.2-.3-1.9.9.2.3Z" fill="#1d1918" stroke-width="0"/><path d="m10,27.1l1.4,1.6-.5.6-.9-1.1-.6.5.8.9-.5.4-.8-.9-.6.5,1,1.2-.6.4-1.4-1.7,2.7-2.3Z" fill="#1d1918" stroke-width="0"/><path d="m9.6,31.6l.5-.7c0,.4.4.9.6,1.1.2.2.5.2.6,0,.2-.2,0-.4-.2-.7-.3-.6-.5-1-.1-1.5.4-.5,1-.6,1.6,0,.2.2.4.4.6.7l-.5.7c-.1-.4-.3-.7-.6-.9-.2-.2-.4-.2-.5,0-.2.2,0,.5.2.8.3.4.5.9,0,1.4-.4.6-1.1.5-1.7,0-.3-.2-.5-.6-.7-.9Z" fill="#1d1918" stroke-width="0"/><path d="m14.1,31.5l-1-.5.3-.6,2.7,1.3-.3.6-1-.5-1.2,2.6-.7-.3,1.2-2.6Z" fill="#1d1918" stroke-width="0"/><path d="m16.4,31.7l.8.2-.9,3.4-.8-.2.9-3.4Z" fill="#1d1918" stroke-width="0"/><path d="m18.4,33.7h0s-.1,2.1-.1,2.1h-.8s.2-3.6.2-3.6h.3s1.9,2.2,1.9,2.2h0s.1-2,.1-2h.8s-.2,3.6-.2,3.6h-.3s-1.9-2.2-1.9-2.2Z" fill="#1d1918" stroke-width="0"/><path d="m22.5,32h.3c0,0,2.4,3.1,2.4,3.1l-.8.2-.4-.6-1.3.3v.7c-.1,0-1,.2-1,.2l.8-3.9Zm1,2.1l-.6-.8h0s-.2,1-.2,1l.8-.2Z" fill="#1d1918" stroke-width="0"/><path d="m25.1,31.9l-1,.5-.3-.6,2.7-1.2.3.6-1,.5,1.2,2.6-.7.3-1.2-2.6Z" fill="#1d1918" stroke-width="0"/><path d="m26.7,30.3l.7-.5,2,2.9-.7.5-2-2.9Z" fill="#1d1918" stroke-width="0"/><path d="m29,30.9c-.8-.7-.8-1.9,0-2.6.7-.7,1.8-.8,2.6,0,.8.7.8,1.9,0,2.6-.7.7-1.8.8-2.6.1Zm2.1-.6c.4-.4.4-1-.1-1.5-.5-.5-1.1-.4-1.5,0-.4.4-.4,1,.1,1.5.5.5,1.1.4,1.5,0Z" fill="#1d1918" stroke-width="0"/><path d="m32,26.7h0s1.9.9,1.9.9l-.3.7-3.2-1.6v-.3c.1,0,2.9-1,2.9-1h0s-1.8-.9-1.8-.9l.3-.7,3.2,1.6v.3c-.1,0-2.9,1-2.9,1Z" fill="#1d1918" stroke-width="0"/><path d="m5.2,23c-.2,0-.3-.1-.3-.3-.2-.9-.2-1.8-.2-2.7,0-2.2.4-4.3,1.3-6.3.9-1.9,2.1-3.6,3.6-5,.1-.1.4-.1.5,0,.1.1.1.4,0,.5-1.5,1.4-2.6,3-3.4,4.8-.8,1.9-1.3,3.9-1.3,6s0,1.7.2,2.6c0,.2,0,.4-.3.4,0,0,0,0,0,0Z" fill="#1d1918" stroke-width="0"/><path d="m7.6,20.4c-.2,0-.4-.2-.4-.4,0-2.7.8-5.2,2.4-7.4.1-.2.3-.2.5,0s.2.3,0,.5c-1.5,2-2.2,4.5-2.2,7s-.2.4-.4.4Z" fill="#1d1918" stroke-width="0"/><path d="m34.6,23s0,0,0,0c-.2,0-.3-.2-.3-.4.2-.9.2-1.7.2-2.6,0-2.1-.4-4.1-1.3-6-.8-1.8-2-3.4-3.4-4.8-.1-.1-.2-.4,0-.5s.4-.2.5,0c1.5,1.4,2.8,3.1,3.6,5,.9,2,1.3,4.1,1.3,6.3s0,1.8-.2,2.7c0,.2-.2.3-.3.3Z" fill="#1d1918" stroke-width="0"/><path d="m32.1,20.4c-.2,0-.4-.2-.4-.4,0-2.5-.8-4.9-2.2-7-.1-.2,0-.4,0-.5.2-.1.4,0,.5,0,1.5,2.2,2.4,4.7,2.4,7.4s-.2.4-.4.4Z" fill="#1d1918" stroke-width="0"/></svg>