<?xml version="1.0" encoding="UTF-8"?><svg id="Layer_1" xmlns="http://www.w3.org/2000/svg" width="40" height="40" viewBox="0 0 40 40"><path d="m14.8,31S8.5,37.8,0,31.8c0,0,4.3,8.3,16.1,8.2,11.8,0,18.1-8.1,19.2-13.9,0,0,4-.2,4.8-2,0,0-3,0-4.3-.5,0,0,3.4-.3,4.1-2.3,0,0-2.8.7-4.5,0,0,0-1.3-8.3-8.5-8.2,0,0,3.2-.9,3.1-1.8s-2.8.2-2.8.2c0,0,1.2-.8,1-1.2s-2.5.9-2.8,1.2c0,0,.3-.3.3-.9s-4.2,2.9-6.2,10.1c0,0-3.4-3.8-13.5-7.2,0,0-.6,2.8,3.1,5.1l-2.1.5s0,3.4,4.2,4.3c0,0-1.8-.1-2.5,1.2,0,0,.6,2.5,4.7,2.6,0,0-1.7.7-1.4,2.3s2.9,1.4,2.9,1.4Z" fill="#f0a61e" stroke-width="0"/></svg>